<svg width="241" height="26" viewBox="0 0 241 26" fill="none" xmlns="http://www.w3.org/2000/svg">
<path d="M4.592 2.152V19H0.488V2.152H4.592ZM15.7261 5.464C17.2941 5.464 18.5421 5.976 19.4701 7C20.4141 8.008 20.8861 9.4 20.8861 11.176V19H16.8061V11.728C16.8061 10.832 16.5741 10.136 16.1101 9.64C15.6461 9.144 15.0221 8.896 14.2381 8.896C13.4541 8.896 12.8301 9.144 12.3661 9.64C11.9021 10.136 11.6701 10.832 11.6701 11.728V19H7.56613V5.608H11.6701V7.384C12.0861 6.792 12.6461 6.328 13.3501 5.992C14.0541 5.64 14.8461 5.464 15.7261 5.464ZM30.458 9.016H28.25V19H24.146V9.016H22.658V5.608H24.146V5.224C24.146 3.576 24.618 2.328 25.562 1.48C26.506 0.615999 27.89 0.183999 29.714 0.183999C30.018 0.183999 30.242 0.191999 30.386 0.207999V3.688C29.602 3.64 29.05 3.752 28.73 4.024C28.41 4.296 28.25 4.784 28.25 5.488V5.608H30.458V9.016ZM36.4904 1.24V19H32.3864V1.24H36.4904ZM52.6886 5.608V19H48.5846V17.176C48.1686 17.768 47.6006 18.248 46.8806 18.616C46.1766 18.968 45.3926 19.144 44.5286 19.144C43.5046 19.144 42.6006 18.92 41.8166 18.472C41.0326 18.008 40.4246 17.344 39.9926 16.48C39.5606 15.616 39.3446 14.6 39.3446 13.432V5.608H43.4246V12.88C43.4246 13.776 43.6566 14.472 44.1206 14.968C44.5846 15.464 45.2086 15.712 45.9926 15.712C46.7926 15.712 47.4246 15.464 47.8886 14.968C48.3526 14.472 48.5846 13.776 48.5846 12.88V5.608H52.6886ZM68.2604 12.088C68.2604 12.472 68.2364 12.872 68.1884 13.288H58.9004C58.9644 14.12 59.2284 14.76 59.6924 15.208C60.1724 15.64 60.7564 15.856 61.4444 15.856C62.4684 15.856 63.1804 15.424 63.5804 14.56H67.9484C67.7244 15.44 67.3164 16.232 66.7244 16.936C66.1484 17.64 65.4204 18.192 64.5404 18.592C63.6604 18.992 62.6764 19.192 61.5884 19.192C60.2764 19.192 59.1084 18.912 58.0844 18.352C57.0604 17.792 56.2604 16.992 55.6844 15.952C55.1084 14.912 54.8204 13.696 54.8204 12.304C54.8204 10.912 55.1004 9.696 55.6604 8.656C56.2364 7.616 57.0364 6.816 58.0604 6.256C59.0844 5.696 60.2604 5.416 61.5884 5.416C62.8844 5.416 64.0364 5.688 65.0444 6.232C66.0524 6.776 66.8364 7.552 67.3964 8.56C67.9724 9.568 68.2604 10.744 68.2604 12.088ZM64.0604 11.008C64.0604 10.304 63.8204 9.744 63.3404 9.328C62.8604 8.912 62.2604 8.704 61.5404 8.704C60.8524 8.704 60.2684 8.904 59.7884 9.304C59.3244 9.704 59.0364 10.272 58.9244 11.008H64.0604ZM78.5855 5.464C80.1535 5.464 81.4015 5.976 82.3295 7C83.2735 8.008 83.7455 9.4 83.7455 11.176V19H79.6655V11.728C79.6655 10.832 79.4335 10.136 78.9695 9.64C78.5055 9.144 77.8815 8.896 77.0975 8.896C76.3135 8.896 75.6895 9.144 75.2255 9.64C74.7615 10.136 74.5295 10.832 74.5295 11.728V19H70.4255V5.608H74.5295V7.384C74.9455 6.792 75.5055 6.328 76.2095 5.992C76.9135 5.64 77.7055 5.464 78.5855 5.464ZM85.7814 12.304C85.7814 10.912 86.0614 9.696 86.6214 8.656C87.1974 7.616 87.9894 6.816 88.9974 6.256C90.0214 5.696 91.1894 5.416 92.5014 5.416C94.1814 5.416 95.5814 5.856 96.7014 6.736C97.8374 7.616 98.5814 8.856 98.9334 10.456H94.5654C94.1974 9.432 93.4854 8.92 92.4294 8.92C91.6774 8.92 91.0774 9.216 90.6294 9.808C90.1814 10.384 89.9574 11.216 89.9574 12.304C89.9574 13.392 90.1814 14.232 90.6294 14.824C91.0774 15.4 91.6774 15.688 92.4294 15.688C93.4854 15.688 94.1974 15.176 94.5654 14.152H98.9334C98.5814 15.72 97.8374 16.952 96.7014 17.848C95.5654 18.744 94.1654 19.192 92.5014 19.192C91.1894 19.192 90.0214 18.912 88.9974 18.352C87.9894 17.792 87.1974 16.992 86.6214 15.952C86.0614 14.912 85.7814 13.696 85.7814 12.304ZM113.753 12.088C113.753 12.472 113.729 12.872 113.681 13.288H104.393C104.457 14.12 104.721 14.76 105.185 15.208C105.665 15.64 106.249 15.856 106.937 15.856C107.961 15.856 108.673 15.424 109.073 14.56H113.441C113.217 15.44 112.809 16.232 112.217 16.936C111.641 17.64 110.913 18.192 110.033 18.592C109.153 18.992 108.169 19.192 107.081 19.192C105.769 19.192 104.601 18.912 103.577 18.352C102.553 17.792 101.753 16.992 101.177 15.952C100.601 14.912 100.313 13.696 100.313 12.304C100.313 10.912 100.593 9.696 101.153 8.656C101.729 7.616 102.529 6.816 103.553 6.256C104.577 5.696 105.753 5.416 107.081 5.416C108.377 5.416 109.529 5.688 110.537 6.232C111.545 6.776 112.329 7.552 112.889 8.56C113.465 9.568 113.753 10.744 113.753 12.088ZM109.553 11.008C109.553 10.304 109.313 9.744 108.833 9.328C108.353 8.912 107.753 8.704 107.033 8.704C106.345 8.704 105.761 8.904 105.281 9.304C104.817 9.704 104.529 10.272 104.417 11.008H109.553ZM120.022 7.84C120.502 7.104 121.102 6.528 121.822 6.112C122.542 5.68 123.342 5.464 124.222 5.464V9.808H123.094C122.07 9.808 121.302 10.032 120.79 10.48C120.278 10.912 120.022 11.68 120.022 12.784V19H115.918V5.608H120.022V7.84ZM135.373 7.504C135.773 6.88 136.325 6.376 137.029 5.992C137.733 5.608 138.557 5.416 139.501 5.416C140.605 5.416 141.605 5.696 142.501 6.256C143.397 6.816 144.101 7.616 144.613 8.656C145.141 9.696 145.405 10.904 145.405 12.28C145.405 13.656 145.141 14.872 144.613 15.928C144.101 16.968 143.397 17.776 142.501 18.352C141.605 18.912 140.605 19.192 139.501 19.192C138.573 19.192 137.749 19 137.029 18.616C136.325 18.232 135.773 17.736 135.373 17.128V25.384H131.269V5.608H135.373V7.504ZM141.229 12.28C141.229 11.256 140.941 10.456 140.365 9.88C139.805 9.288 139.109 8.992 138.277 8.992C137.461 8.992 136.765 9.288 136.189 9.88C135.629 10.472 135.349 11.28 135.349 12.304C135.349 13.328 135.629 14.136 136.189 14.728C136.765 15.32 137.461 15.616 138.277 15.616C139.093 15.616 139.789 15.32 140.365 14.728C140.941 14.12 141.229 13.304 141.229 12.28ZM151.662 7.84C152.142 7.104 152.742 6.528 153.462 6.112C154.182 5.68 154.982 5.464 155.862 5.464V9.808H154.734C153.71 9.808 152.942 10.032 152.43 10.48C151.918 10.912 151.662 11.68 151.662 12.784V19H147.558V5.608H151.662V7.84ZM163.92 19.192C162.608 19.192 161.424 18.912 160.368 18.352C159.328 17.792 158.504 16.992 157.896 15.952C157.304 14.912 157.008 13.696 157.008 12.304C157.008 10.928 157.312 9.72 157.92 8.68C158.528 7.624 159.36 6.816 160.416 6.256C161.472 5.696 162.656 5.416 163.968 5.416C165.28 5.416 166.464 5.696 167.52 6.256C168.576 6.816 169.408 7.624 170.016 8.68C170.624 9.72 170.928 10.928 170.928 12.304C170.928 13.68 170.616 14.896 169.992 15.952C169.384 16.992 168.544 17.792 167.472 18.352C166.416 18.912 165.232 19.192 163.92 19.192ZM163.92 15.64C164.704 15.64 165.368 15.352 165.912 14.776C166.472 14.2 166.752 13.376 166.752 12.304C166.752 11.232 166.48 10.408 165.936 9.832C165.408 9.256 164.752 8.968 163.968 8.968C163.168 8.968 162.504 9.256 161.976 9.832C161.448 10.392 161.184 11.216 161.184 12.304C161.184 13.376 161.44 14.2 161.952 14.776C162.48 15.352 163.136 15.64 163.92 15.64ZM172.289 12.28C172.289 10.904 172.545 9.696 173.057 8.656C173.585 7.616 174.297 6.816 175.193 6.256C176.089 5.696 177.089 5.416 178.193 5.416C179.073 5.416 179.873 5.6 180.593 5.968C181.329 6.336 181.905 6.832 182.321 7.456V1.24H186.425V19H182.321V17.08C181.937 17.72 181.385 18.232 180.665 18.616C179.961 19 179.137 19.192 178.193 19.192C177.089 19.192 176.089 18.912 175.193 18.352C174.297 17.776 173.585 16.968 173.057 15.928C172.545 14.872 172.289 13.656 172.289 12.28ZM182.321 12.304C182.321 11.28 182.033 10.472 181.457 9.88C180.897 9.288 180.209 8.992 179.393 8.992C178.577 8.992 177.881 9.288 177.305 9.88C176.745 10.456 176.465 11.256 176.465 12.28C176.465 13.304 176.745 14.12 177.305 14.728C177.881 15.32 178.577 15.616 179.393 15.616C180.209 15.616 180.897 15.32 181.457 14.728C182.033 14.136 182.321 13.328 182.321 12.304ZM202.618 5.608V19H198.514V17.176C198.098 17.768 197.53 18.248 196.81 18.616C196.106 18.968 195.322 19.144 194.458 19.144C193.434 19.144 192.53 18.92 191.746 18.472C190.962 18.008 190.354 17.344 189.922 16.48C189.49 15.616 189.274 14.6 189.274 13.432V5.608H193.354V12.88C193.354 13.776 193.586 14.472 194.05 14.968C194.514 15.464 195.138 15.712 195.922 15.712C196.722 15.712 197.354 15.464 197.818 14.968C198.282 14.472 198.514 13.776 198.514 12.88V5.608H202.618ZM204.75 12.304C204.75 10.912 205.03 9.696 205.59 8.656C206.166 7.616 206.958 6.816 207.966 6.256C208.99 5.696 210.158 5.416 211.47 5.416C213.15 5.416 214.55 5.856 215.67 6.736C216.806 7.616 217.55 8.856 217.902 10.456H213.534C213.166 9.432 212.454 8.92 211.398 8.92C210.646 8.92 210.046 9.216 209.598 9.808C209.15 10.384 208.926 11.216 208.926 12.304C208.926 13.392 209.15 14.232 209.598 14.824C210.046 15.4 210.646 15.688 211.398 15.688C212.454 15.688 213.166 15.176 213.534 14.152H217.902C217.55 15.72 216.806 16.952 215.67 17.848C214.534 18.744 213.134 19.192 211.47 19.192C210.158 19.192 208.99 18.912 207.966 18.352C206.958 17.792 206.166 16.992 205.59 15.952C205.03 14.912 204.75 13.696 204.75 12.304ZM227.561 15.52V19H225.473C223.985 19 222.825 18.64 221.993 17.92C221.161 17.184 220.745 15.992 220.745 14.344V9.016H219.113V5.608H220.745V2.344H224.849V5.608H227.537V9.016H224.849V14.392C224.849 14.792 224.945 15.08 225.137 15.256C225.329 15.432 225.649 15.52 226.097 15.52H227.561ZM235.295 19.192C234.127 19.192 233.087 18.992 232.175 18.592C231.263 18.192 230.543 17.648 230.015 16.96C229.487 16.256 229.191 15.472 229.127 14.608H233.183C233.231 15.072 233.447 15.448 233.831 15.736C234.215 16.024 234.687 16.168 235.247 16.168C235.759 16.168 236.151 16.072 236.423 15.88C236.711 15.672 236.855 15.408 236.855 15.088C236.855 14.704 236.655 14.424 236.255 14.248C235.855 14.056 235.207 13.848 234.311 13.624C233.351 13.4 232.551 13.168 231.911 12.928C231.271 12.672 230.719 12.28 230.255 11.752C229.791 11.208 229.559 10.48 229.559 9.568C229.559 8.8 229.767 8.104 230.183 7.48C230.615 6.84 231.239 6.336 232.055 5.968C232.887 5.6 233.871 5.416 235.007 5.416C236.687 5.416 238.007 5.832 238.967 6.664C239.943 7.496 240.503 8.6 240.647 9.976H236.855C236.791 9.512 236.583 9.144 236.231 8.872C235.895 8.6 235.447 8.464 234.887 8.464C234.407 8.464 234.039 8.56 233.783 8.752C233.527 8.928 233.399 9.176 233.399 9.496C233.399 9.88 233.599 10.168 233.999 10.36C234.415 10.552 235.055 10.744 235.919 10.936C236.911 11.192 237.719 11.448 238.343 11.704C238.967 11.944 239.511 12.344 239.975 12.904C240.455 13.448 240.703 14.184 240.719 15.112C240.719 15.896 240.495 16.6 240.047 17.224C239.615 17.832 238.983 18.312 238.151 18.664C237.335 19.016 236.383 19.192 235.295 19.192Z" fill="#3A3A3A"/>
</svg>
